<svg xmlns="http://www.w3.org/2000/svg" viewBox="0 0 1926.18 218.29"><defs><style>.cls-1{fill:none;}.cls-1,.cls-2{stroke:#000;stroke-linecap:round;stroke-linejoin:round;stroke-width:3px;}.cls-2{fill:#fff;}.cls-10,.cls-11,.cls-12,.cls-13,.cls-14,.cls-15,.cls-3,.cls-4,.cls-5,.cls-6,.cls-7,.cls-8,.cls-9{isolation:isolate;}.cls-3{font-size:40px;}.cls-10,.cls-11,.cls-12,.cls-13,.cls-14,.cls-15,.cls-3,.cls-6,.cls-7,.cls-8,.cls-9{font-family:Chalkboard, Chalkboard;}.cls-10,.cls-11,.cls-12,.cls-13,.cls-14,.cls-15,.cls-5,.cls-6,.cls-7,.cls-8,.cls-9{font-size:120px;}.cls-5{font-family:Chalkboard-Bold, Chalkboard;font-weight:700;}.cls-7{letter-spacing:0.02em;}.cls-8{letter-spacing:-0.04em;}.cls-9{letter-spacing:0.01em;}.cls-10{letter-spacing:-0.08em;}.cls-11{letter-spacing:-0.07em;}.cls-12{letter-spacing:-0.05em;}.cls-13{letter-spacing:-0.03em;}.cls-14{letter-spacing:-0.02em;}.cls-15{letter-spacing:-0.04em;}</style></defs><title>logo</title><g id="level_2" data-name="level 2"><g id="level_1-2" data-name="level 1"><g id="level_2-2" data-name="level 2"><g id="level_1-2-2" data-name="level 1-2"><line class="cls-1" x1="1.5" y1="62.5" x2="201.5" y2="62.5"/><line class="cls-1" x1="1.5" y1="140.5" x2="201.5" y2="140.5"/><line class="cls-1" x1="63.5" y1="201.5" x2="63.5" y2="1.5"/><line class="cls-1" x1="141.5" y1="201.5" x2="141.5" y2="1.5"/><rect class="cls-2" x="33.5" y="32.5" width="60" height="60"/><rect class="cls-2" x="111.5" y="32.5" width="60" height="60"/><rect class="cls-2" x="33.5" y="110.5" width="60" height="60"/><rect class="cls-2" x="111.5" y="110.5" width="60" height="60"/><text class="cls-3" transform="translate(51.03 76.27)">T</text><text class="cls-3" transform="translate(128.03 75.27)">N</text><text class="cls-3" transform="translate(50.03 153.27)">S</text><text class="cls-3" transform="translate(130.03 154.27)">P</text><g class="cls-4"><text class="cls-5" transform="translate(243.82 144.43)">T</text><text class="cls-6" transform="translate(314.76 144.43)">ens</text><text class="cls-7" transform="translate(490.84 144.43)">o</text><text class="cls-6" transform="translate(551.17 144.43)">r </text><text class="cls-5" transform="translate(649.56 144.43)">N</text><text class="cls-8" transform="translate(730.97 144.43)">e</text><text class="cls-6" transform="translate(788.78 144.43)">t</text><text class="cls-9" transform="translate(843.68 144.43)">w</text><text class="cls-7" transform="translate(930.79 144.43)">o</text><text class="cls-6" transform="translate(991.12 144.43)">r</text><text class="cls-6" transform="translate(1043.76 144.43)">k </text><text class="cls-5" transform="translate(1153.02 144.43)">S</text><text class="cls-10" transform="translate(1226.21 144.43)">t</text><text class="cls-11" transform="translate(1271.56 144.43)">a</text><text class="cls-12" transform="translate(1327.65 144.43)">t</text><text class="cls-6" transform="translate(1376.58 144.43)">e </text><text class="cls-5" transform="translate(1485.57 144.43)">P</text><text class="cls-13" transform="translate(1557.7 144.43)">a</text><text class="cls-14" transform="translate(1618.3 144.43)">c</text><text class="cls-15" transform="translate(1675.45 144.43)">k</text><text class="cls-6" transform="translate(1733.53 144.43)">a</text><text class="cls-7" transform="translate(1797.97 144.43)">g</text><text class="cls-6" transform="translate(1863.07 144.43)">e</text></g></g></g></g></g></svg>